<svg xmlns="http://www.w3.org/2000/svg" xmlns:xlink="http://www.w3.org/1999/xlink" style="enable-background:new 0 0 815 656" id="Layer_1" x="0" y="0" version="1.1" viewBox="0 0 815 656" xml:space="preserve"><style type="text/css">.st0{filter:url(#filter-2)}.st1,.st2,.st3{fill-rule:evenodd;clip-rule:evenodd}.st2{fill:#2d314d}.st3{fill:url(#Combined-Shape_2_)}</style><filter id="filter-2" width="131.4%" height="138.3%" x="-15.7%" y="-18.8%" filterUnits="objectBoundingBox"><feOffset dx="0" dy="2" in="SourceAlpha" result="shadowOffsetOuter1"/><feGaussianBlur in="shadowOffsetOuter1" result="shadowBlurOuter1" stdDeviation="38.5"/><feColorMatrix in="shadowBlurOuter1" type="matrix" values="0 0 0 0 0 0 0 0 0 0 0 0 0 0 0 0 0 0 0.0240111451 0"/></filter><g id="High-Fidelity"><g id="P2357---Desktop" transform="translate(-625.000000, -53.000000)"><g id="Group-38" transform="translate(697.000000, 80.000000)"><g id="Combined-Shape"><g class="st0"><path id="path-1_2_" d="M317,20c26.5,0,52,10.5,70.7,29.3l0,0L423,84.5c18.8,18.8,44.2,29.3,70.7,29.3l0,0h234.4 c5,0,10,0.4,14.9,1.1l0,514.1H509.2L358.8,478.7c-18.6-18.6-43.7-29.1-69.9-29.3l-0.8,0h-70.7c-26.5,0-52-10.5-70.7-29.3l0,0 L12.4,285.8c-7.6-7.6-11.9-18-11.9-28.8c0-22.5,18.2-40.7,40.7-40.7c10.8,0,21.1-4.3,28.8-11.9c15.9-15.9,15.9-41.6,0-57.5l0,0 l-28.8-28.8c-10.8-10.8-16.8-25.4-16.8-40.7C24.4,45.8,50.1,20,81.9,20l0,0H317z" class="st1"/></g><g><path id="path-1_1_" d="M317,20c26.5,0,52,10.5,70.7,29.3l0,0L423,84.5c18.8,18.8,44.2,29.3,70.7,29.3l0,0h234.4 c5,0,10,0.4,14.9,1.1l0,514.1H509.2L358.8,478.7c-18.6-18.6-43.7-29.1-69.9-29.3l-0.8,0h-70.7c-26.5,0-52-10.5-70.7-29.3l0,0 L12.4,285.8c-7.6-7.6-11.9-18-11.9-28.8c0-22.5,18.2-40.7,40.7-40.7c10.8,0,21.1-4.3,28.8-11.9c15.9-15.9,15.9-41.6,0-57.5l0,0 l-28.8-28.8c-10.8-10.8-16.8-25.4-16.8-40.7C24.4,45.8,50.1,20,81.9,20l0,0H317z" class="st2"/></g></g><linearGradient id="Combined-Shape_2_" x1="147.704" x2="148.7" y1="468.5" y2="468.078" gradientTransform="matrix(597.3939 0 0 -389 -88048.6953 182265)" gradientUnits="userSpaceOnUse"><stop style="stop-color:#33d35e" offset="0"/><stop style="stop-color:#2ab6d9" offset="1"/></linearGradient><path id="Combined-Shape_1_" d="M743-27l0,389h-14.4c-26.3,0-51.4-10.3-70.1-28.7l-0.6-0.6l-161-161 c-18.8-18.8-44.2-29.3-70.7-29.3l0,0h-70.7c-26.5,0-52-10.5-70.7-29.3l0,0L150.4-21.2c-1.8-1.8-3.4-3.8-4.8-5.8L743-27z" class="st3"/></g></g></g></svg>