<svg xmlns="http://www.w3.org/2000/svg" xmlns:xlink="http://www.w3.org/1999/xlink" id="Layer_1" x="0" y="0" version="1.1" viewBox="0 0 1440 420" xml:space="preserve" style="enable-background:new 0 0 1440 420"><style type="text/css">.st0{fill-rule:evenodd;clip-rule:evenodd;fill:#0f1b3d}.st1{filter:url(#Adobe_OpacityMaskFilter)}.st2,.st3{fill-rule:evenodd;clip-rule:evenodd;fill:#fff}.st3{mask:url(#c_1_);fill:url(#shadow3_1_);fill-opacity:.75}.st4{filter:url(#Adobe_OpacityMaskFilter_1_)}.st5{mask:url(#c_2_);fill-rule:evenodd;clip-rule:evenodd;fill:url(#shadow2_1_);fill-opacity:.75}.st6{filter:url(#Adobe_OpacityMaskFilter_2_)}.st7{opacity:.401;mask:url(#c_3_);fill-rule:evenodd;clip-rule:evenodd;fill:url(#shadow1_1_);fill-opacity:.75;enable-background:new}</style><g><path id="a_1_" d="M210,0h1230v420H0V210C0,94,94,0,210,0z" class="st0"/><defs><filter id="Adobe_OpacityMaskFilter" width="1866" height="1360" x="87" y="-352" filterUnits="userSpaceOnUse"><feColorMatrix type="matrix" values="1 0 0 0 0 0 1 0 0 0 0 0 1 0 0 0 0 0 1 0"/></filter></defs><mask id="c_1_" width="1866" height="1360" x="87" y="-352" maskUnits="userSpaceOnUse"><g class="st1"><path id="a_2_" d="M210,0h1230v420H0V210C0,94,94,0,210,0z" class="st2"/></g></mask><linearGradient id="shadow3_1_" x1="288.567" x2="288.841" y1="642.454" y2="642.236" gradientTransform="matrix(-1865.9993 0 0 -1360.0004 539648.8125 873907.25)" gradientUnits="userSpaceOnUse"><stop offset="0" style="stop-color:#1e2d69"/><stop offset=".999" style="stop-color:#0c122c;stop-opacity:0"/></linearGradient><path id="shadow3" d="M1947,658c33.3-179.4-64.4-338-457.6-371.4c-393.2-33.4-413.4-249.5-629.1-443.9 c-215.7-194.3-609.3-330.9-719.7,32c-110.3,362.9-67.5,599.4,291.2,898c358.6,298.6,736.1,236.9,892.1,214 C1479.9,963.8,1913.7,837.4,1947,658L1947,658z" class="st3"/><defs><filter id="Adobe_OpacityMaskFilter_1_" width="1345.6" height="981" x="-86" y="-111" filterUnits="userSpaceOnUse"><feColorMatrix type="matrix" values="1 0 0 0 0 0 1 0 0 0 0 0 1 0 0 0 0 0 1 0"/></filter></defs><mask id="c_2_" width="1345.6" height="981" x="-86" y="-111" maskUnits="userSpaceOnUse"><g class="st4"><path id="a_3_" d="M210,0h1230v420H0V210C0,94,94,0,210,0z" class="st2"/></g></mask><linearGradient id="shadow2_1_" x1="288.627" x2="288.901" y1="642.391" y2="642.173" gradientTransform="matrix(-1345.6029 0 0 -980.9893 389081.25 630444.125)" gradientUnits="userSpaceOnUse"><stop offset="0" style="stop-color:#1e2d69"/><stop offset=".999" style="stop-color:#0c122c;stop-opacity:0"/></linearGradient><path id="shadow2" d="M1255.2,617.5c24-129.4-46.4-243.8-330-267.9c-283.6-24.1-298.1-180-453.6-320.2 C316.1-110.7,32.2-209.2-47.3,52.6c-79.6,261.8-48.6,432.4,210,647.8c258.6,215.4,530.8,170.9,643.3,154.3 C918.4,838.1,1231.2,746.9,1255.2,617.5L1255.2,617.5z" class="st5"/><defs><filter id="Adobe_OpacityMaskFilter_2_" width="1345.6" height="981" x="-114" y="163" filterUnits="userSpaceOnUse"><feColorMatrix type="matrix" values="1 0 0 0 0 0 1 0 0 0 0 0 1 0 0 0 0 0 1 0"/></filter></defs><mask id="c_3_" width="1345.6" height="981" x="-114" y="163" maskUnits="userSpaceOnUse"><g class="st6"><path id="a_4_" d="M210,0h1230v420H0V210C0,94,94,0,210,0z" class="st2"/></g></mask><linearGradient id="shadow1_1_" x1="288.627" x2="288.901" y1="642.391" y2="642.173" gradientTransform="matrix(-1345.6029 0 0 -980.9893 389053.25 630718.125)" gradientUnits="userSpaceOnUse"><stop offset="0" style="stop-color:#1e2d69"/><stop offset=".999" style="stop-color:#0c122c;stop-opacity:0"/></linearGradient><path id="shadow1" d="M1227.2,891.5c24-129.4-46.4-243.8-330-267.9c-283.6-24.1-298.1-180-453.6-320.2 C288.1,163.3,4.2,64.8-75.3,326.6c-79.6,261.8-48.6,432.4,210,647.8c258.6,215.4,530.8,170.9,643.3,154.3 C890.4,1112.1,1203.2,1020.9,1227.2,891.5L1227.2,891.5z" class="st7"/></g></svg>